<svg xmlns:xlink="http://www.w3.org/1999/xlink" width="138.912ex" height="7.176ex" style="vertical-align:-3.171ex" viewBox="0 -1724.2 59809 3089.6" xmlns="http://www.w3.org/2000/svg"><defs><path stroke-width="10" id="a" d="M720 510q0-34-16-62t-39-44-46-27-39-15l-16-3 19-3q19-3 49-14t58-30q22-20 35-36 27-41 27-87v-6q0-23-11-58Q698 18 547 2q-4-1-259-2H39v62h108v562H39v62h370q93 0 133-5t82-26q96-48 96-145zm-157 3q0 40-15 65t-30 33-32 11q-7 2-101 2h-92V382h82q83 1 92 3 96 20 96 128zm27-321q0 115-85 137-1 1-2 1l-105 1H293V62h151q52 0 84 13t52 56q10 24 10 61z"/><path stroke-width="10" id="b" d="M94 250q0 69 10 131t23 107 37 88 38 67 42 52 33 34 25 21h17q14 0 14-9 0-3-17-21t-41-53-49-86-42-138-17-193 17-192 41-139 49-86 42-53 17-21q0-9-15-9h-16l-28 24q-94 85-137 212T94 250z"/><path stroke-width="10" id="c" d="M26 385q-7 7-7 10 0 4 3 16t5 14q2 5 9 5t51 1h53l19 80q3 11 7 29t7 26 6 20 8 17 10 12 14 9 18 2q18-1 25-11t7-19q0-7-9-47t-20-79l-10-37q0-2 50-2h51q7-7 7-11 0-22-13-35H210l-36-145Q135 80 135 68q0-42 27-42 35 0 68 34t53 84q2 6 5 7t15 2h4q15 0 15-8 0-3-3-12-5-16-18-38t-34-47-51-42-61-17q-30 0-57 15T59 56q-2 8-2 27v18l35 140q35 141 36 142 0 2-51 2H26z"/><path stroke-width="10" id="d" d="M60 749l4 1h22l28-24q94-85 137-212t43-264q0-68-10-131T261 12t-37-88-38-67-41-51-32-33-23-19l-4-4H63q-3 0-5 3t-3 9q1 1 11 13Q221-64 221 250T66 725q-10 12-11 13 0 8 5 11z"/><path stroke-width="10" id="e" d="M56 347q0 13 14 20h637q15-8 15-20 0-11-14-19l-318-1H72q-16 5-16 20zm0-194q0 15 16 20h636q14-10 14-20 0-13-15-20H70q-14 7-14 20z"/><path stroke-width="10" id="f" d="M60 948q3 2 605 2h602l58-135q59-138 63-146h-40l-7 14q-21 41-56 78-50 48-111 77t-141 43-151 17-183 4H251l8-11q463-633 465-639 1-2 0-6-3-3-264-302L196-356q0-1 211-1h141q89 0 128-1 136 0 220 5t167 21 141 49 103 87q21 26 41 72h40q0-1-7-21t-25-65-31-84l-58-155-601-1q-602 0-605 2-6 2-6 9 0 2 2 6l533 610q0 1-33 45T452 366 322 544L56 909l-1 15q0 21 5 24z"/><path stroke-width="10" id="g" d="M184 600q0 24 19 42t44 19q18 0 30-12t13-30q0-23-20-42t-44-20q-15 0-28 10t-14 33zM21 287q0 8 9 31t24 51 44 51 60 22q39 0 65-23t27-62q0-17-14-56t-40-105-42-113q-5-22-5-32 0-25 17-25 9 0 19 3t23 14 27 35 25 59q3 12 5 14t17 2q20 0 20-10 0-8-9-31t-25-51-45-50-62-22q-32 0-59 21T74 74q0 17 5 32t43 114q38 101 44 121t7 39q0 24-17 24h-2q-30 0-55-33t-38-84q-1-1-2-3t-1-3-2-2-3-1-4 0-8 0H27q-6 6-6 9z"/><path stroke-width="10" id="h" d="M96 585q56 81 153 81 48 0 96-26t78-92q37-83 37-228 0-155-43-237-20-42-55-67t-61-31-51-7q-26 0-52 6t-61 32-55 67q-43 82-43 237 0 174 57 265zm225 12q-30 32-71 32-42 0-72-32-25-26-33-72t-8-192q0-158 8-208t36-79q28-30 69-30 40 0 68 30 29 30 36 84t8 203q0 145-8 191t-33 73z"/><path stroke-width="10" id="i" d="M21 287q1 6 3 16t12 38 20 47 33 37 46 17q36 0 60-18t30-34 6-21q0-2 1-2l11 11q61 64 139 64 54 0 87-27t34-79-38-157-38-127q0-26 17-26 6 0 9 1 29 5 52 38t35 80q2 8 20 8 20 0 20-8 0-1-4-15-8-29-22-57t-46-56-69-27q-47 0-68 27t-21 56q0 19 36 120t37 152q0 59-44 59h-5q-86 0-145-101l-7-12-33-134Q156 26 151 16q-13-27-43-27-13 0-21 6T76 7t-2 10q0 13 38 163t40 163q1 5 1 23 0 39-24 39-38 0-63-100-6-20-6-21-2-6-19-6H27q-6 6-6 9z"/><path stroke-width="10" id="j" d="M701-940q0-3-6-9h-31q-2 2-28 27t-45 43-54 61-62 81-63 101-62 125-55 149-45 176-29 203-12 234q0 711 364 1110 23 25 43 44t33 32 15 13h31q6-6 6-9 0-5-20-26t-52-59-72-95-81-143-76-191-60-252-32-316q-2-38-2-109 0-389 94-680t290-494q11-12 11-16z"/><path stroke-width="10" id="k" d="M34 1438q0 8 3 10t13 2h21q2-2 28-27t45-43 54-61 62-81 63-101 62-124 55-149 45-176 29-203 12-234q0-117-7-198-47-572-357-913-23-25-43-44t-33-32-15-13H56q-13 0-17 2t-5 10q54 54 106 124Q428-430 428 251q0 202-26 377t-64 294-93 224-100 163-99 116l-4 4q-2 2-3 4t-3 3l-2 2z"/><path stroke-width="10" id="l" d="M400 0q-24 3-174 3Q75 3 51 0H39v62h108v562H39v62h214q182 0 217-1t66-7q49-10 85-30t54-43 30-48 13-43 3-31-3-32-14-42-31-47-57-40-86-29q-30-5-131-6h-95V62h108V0h-12zm153 475q0 79-16 107t-78 40q-8 1-86 2h-75V343h74q85 1 108 7 47 12 60 40t13 85z"/><path stroke-width="10" id="m" d="M213 578l-13-5q-14-5-40-10t-58-7H83v46h19q47 2 87 15t56 24 28 22q2 3 12 3 9 0 17-6V361l1-300q7-7 12-9t24-4 62-2h26V0h-11q-21 3-159 3-136 0-157-3H88v46h64q16 0 25 1t16 3 8 2 6 5 6 4v517z"/><path stroke-width="10" id="n" d="M84 237v13l14 20h581q15-8 15-20t-15-20H98q-14 7-14 20z"/><path stroke-width="10" id="o" d="M56 237v13l14 20h299v150l1 150q10 13 19 13 13 0 20-15V270h298q15-8 15-20t-15-20H409V-68q-8-14-18-14h-4q-12 0-18 14v298H70q-14 7-14 20z"/><path stroke-width="10" id="p" d="M78 250q0 24 17 42t43 18q24 0 42-16t19-43q0-25-17-43t-43-18-43 17-18 43zm447 0q0 24 17 42t43 18q24 0 42-16t19-43q0-25-17-43t-43-18-43 17-18 43zm447 0q0 24 17 42t43 18q24 0 42-16t19-43q0-25-17-43t-43-18-43 17-18 43z"/><path stroke-width="10" id="q" d="M78 35v25l16 43 43 18q28 0 50-25t23-88q0-35-9-68t-21-57-26-41-24-27-13-9q-4 0-13 9t-9 13q0 4 11 16t25 30 26 50 16 73V9l-1-1q-2-1-5-2t-6-3-9-2-12-1q-27 0-44 17z"/><path stroke-width="10" id="r" d="M84 250q0 122 82 200t194 89h17q16 0 42 1t50 0h99q15-8 15-20 0-9-13-19l-104-1q-111-1-137-6-49-12-87-36t-59-49-36-55-18-48-5-34v-2h444q15-8 15-20t-15-20H124v-2q0-21 10-51t33-65 64-64 97-41q27-6 138-7h104q13-10 13-20 0-12-15-20H446q-18 0-29-1-155 0-245 86-88 82-88 205z"/><path stroke-width="10" id="s" d="M118-250V750h137v-40h-97v-920h97v-40H118z"/><path stroke-width="10" id="t" d="M22 710v40h137V-250H22v40h97v920H22z"/></defs><g stroke="currentColor" fill="currentColor" stroke-width="0" transform="scale(1 -1)"><use xlink:href="#a"/><use xlink:href="#b" x="823"/><use xlink:href="#c" x="1217"/><use xlink:href="#d" x="1583"/><use xlink:href="#e" x="2254"/><g transform="translate(3315)"><use xlink:href="#f"/><g transform="matrix(.707 0 0 .707 145 -1105)"><use xlink:href="#g"/><use xlink:href="#e" x="350"/><use xlink:href="#h" x="1133"/></g><use transform="scale(.707)" xlink:href="#i" x="722" y="1640"/></g><g transform="translate(4931)"><use xlink:href="#j" y="-1"/><g transform="translate(741)"><use xlink:href="#i" y="676"/><use xlink:href="#g" x="127" y="-686"/></g><use xlink:href="#k" x="1346" y="-1"/></g><g transform="translate(7018)"><use xlink:href="#l"/><use transform="scale(.707)" xlink:href="#g" x="1118" y="-213"/></g><use xlink:href="#b" x="8156"/><use xlink:href="#m" x="8550"/><use xlink:href="#n" x="9277"/><use xlink:href="#c" x="10283"/><g transform="translate(10649)"><use xlink:href="#d"/><g transform="matrix(.707 0 0 .707 394 412)"><use xlink:href="#i"/><use xlink:href="#n" x="605"/><use xlink:href="#g" x="1388"/></g></g><g transform="translate(12372)"><use xlink:href="#c"/><use transform="scale(.707)" xlink:href="#g" x="517" y="583"/></g><use xlink:href="#e" x="13363"/><g transform="translate(14424)"><use xlink:href="#j" y="-1"/><g transform="translate(741)"><use xlink:href="#i" y="676"/><use xlink:href="#h" x="50" y="-686"/></g><use xlink:href="#k" x="1346" y="-1"/></g><g transform="translate(16511)"><use xlink:href="#l"/><use transform="scale(.707)" xlink:href="#h" x="1118" y="-213"/></g><use xlink:href="#b" x="17759"/><use xlink:href="#m" x="18153"/><use xlink:href="#n" x="18880"/><use xlink:href="#c" x="19885"/><g transform="translate(20251)"><use xlink:href="#d"/><use transform="scale(.707)" xlink:href="#i" x="557" y="583"/></g><g transform="translate(21173)"><use xlink:href="#c"/><use transform="scale(.707)" xlink:href="#h" x="517" y="583"/></g><use xlink:href="#o" x="22218"/><g transform="translate(23224)"><use xlink:href="#j" y="-1"/><g transform="translate(741)"><use xlink:href="#i" y="676"/><use xlink:href="#m" x="50" y="-686"/></g><use xlink:href="#k" x="1346" y="-1"/></g><g transform="translate(25311)"><use xlink:href="#l"/><use transform="scale(.707)" xlink:href="#m" x="1118" y="-213"/></g><use xlink:href="#b" x="26559"/><use xlink:href="#m" x="26953"/><use xlink:href="#n" x="27680"/><use xlink:href="#c" x="28685"/><g transform="translate(29051)"><use xlink:href="#d"/><g transform="matrix(.707 0 0 .707 394 412)"><use xlink:href="#i"/><use xlink:href="#n" x="605"/><use xlink:href="#m" x="1388"/></g></g><g transform="translate(30884)"><use xlink:href="#c"/><use transform="scale(.707)" xlink:href="#m" x="517" y="583"/></g><use xlink:href="#o" x="31929"/><use xlink:href="#p" x="32934"/><use xlink:href="#o" x="34333"/><g transform="translate(35339)"><use xlink:href="#j" y="-1"/><g transform="translate(741)"><use xlink:href="#i" x="866" y="676"/><g transform="translate(0 -686)"><use xlink:href="#i"/><use xlink:href="#n" x="827"/><use xlink:href="#m" x="1832"/></g></g><use xlink:href="#k" x="3078" y="-1"/></g><g transform="translate(39158)"><use xlink:href="#l"/><g transform="matrix(.707 0 0 .707 791 -150)"><use xlink:href="#i"/><use xlink:href="#n" x="605"/><use xlink:href="#m" x="1388"/></g></g><use xlink:href="#b" x="41388"/><use xlink:href="#m" x="41782"/><use xlink:href="#n" x="42509"/><use xlink:href="#c" x="43514"/><g transform="translate(43880)"><use xlink:href="#d"/><use transform="scale(.707)" xlink:href="#m" x="557" y="583"/></g><g transform="translate(44731)"><use xlink:href="#c"/><g transform="matrix(.707 0 0 .707 366 412)"><use xlink:href="#i"/><use xlink:href="#n" x="605"/><use xlink:href="#m" x="1388"/></g></g><use xlink:href="#o" x="46758"/><g transform="translate(47763)"><use xlink:href="#j" y="-1"/><g transform="translate(741)"><use xlink:href="#i" y="676"/><use xlink:href="#i" y="-686"/></g><use xlink:href="#k" x="1346" y="-1"/></g><g transform="translate(49850)"><use xlink:href="#l"/><use transform="scale(.707)" xlink:href="#i" x="1118" y="-213"/></g><use xlink:href="#b" x="51169"/><use xlink:href="#m" x="51563"/><use xlink:href="#n" x="52290"/><use xlink:href="#c" x="53295"/><g transform="translate(53661)"><use xlink:href="#d"/><use transform="scale(.707)" xlink:href="#h" x="557" y="583"/></g><g transform="translate(54512)"><use xlink:href="#c"/><use transform="scale(.707)" xlink:href="#i" x="517" y="583"/></g><use xlink:href="#q" x="55406"/><use xlink:href="#c" x="56189"/><use xlink:href="#r" x="56833"/><use xlink:href="#s" x="57783"/><use xlink:href="#h" x="58066"/><use xlink:href="#q" x="58571"/><use xlink:href="#m" x="59020"/><use xlink:href="#t" x="59525"/></g></svg>