<svg xmlns:xlink="http://www.w3.org/1999/xlink" width="27.289ex" height="2.843ex" style="vertical-align:-.838ex" viewBox="0 -863.1 11749.4 1223.9" xmlns="http://www.w3.org/2000/svg"><defs><path stroke-width="10" id="a" d="M720 510q0-34-16-62t-39-44-46-27-39-15l-16-3 19-3q19-3 49-14t58-30q22-20 35-36 27-41 27-87v-6q0-23-11-58Q698 18 547 2q-4-1-259-2H39v62h108v562H39v62h370q93 0 133-5t82-26q96-48 96-145zm-157 3q0 40-15 65t-30 33-32 11q-7 2-101 2h-92V382h82q83 1 92 3 96 20 96 128zm27-321q0 115-85 137-1 1-2 1l-105 1H293V62h151q52 0 84 13t52 56q10 24 10 61z"/><path stroke-width="10" id="b" d="M94 250q0 69 10 131t23 107 37 88 38 67 42 52 33 34 25 21h17q14 0 14-9 0-3-17-21t-41-53-49-86-42-138-17-193 17-192 41-139 49-86 42-53 17-21q0-9-15-9h-16l-28 24q-94 85-137 212T94 250z"/><path stroke-width="10" id="c" d="M26 385q-7 7-7 10 0 4 3 16t5 14q2 5 9 5t51 1h53l19 80q3 11 7 29t7 26 6 20 8 17 10 12 14 9 18 2q18-1 25-11t7-19q0-7-9-47t-20-79l-10-37q0-2 50-2h51q7-7 7-11 0-22-13-35H210l-36-145Q135 80 135 68q0-42 27-42 35 0 68 34t53 84q2 6 5 7t15 2h4q15 0 15-8 0-3-3-12-5-16-18-38t-34-47-51-42-61-17q-30 0-57 15T59 56q-2 8-2 27v18l35 140q35 141 36 142 0 2-51 2H26z"/><path stroke-width="10" id="d" d="M60 749l4 1h22l28-24q94-85 137-212t43-264q0-68-10-131T261 12t-37-88-38-67-41-51-32-33-23-19l-4-4H63q-3 0-5 3t-3 9q1 1 11 13Q221-64 221 250T66 725q-10 12-11 13 0 8 5 11z"/><path stroke-width="10" id="e" d="M56 347q0 13 14 20h637q15-8 15-20 0-11-14-19l-318-1H72q-16 5-16 20zm0-194q0 15 16 20h636q14-10 14-20 0-13-15-20H70q-14 7-14 20z"/><path stroke-width="10" id="f" d="M213 578l-13-5q-14-5-40-10t-58-7H83v46h19q47 2 87 15t56 24 28 22q2 3 12 3 9 0 17-6V361l1-300q7-7 12-9t24-4 62-2h26V0h-11q-21 3-159 3-136 0-157-3H88v46h64q16 0 25 1t16 3 8 2 6 5 6 4v517z"/><path stroke-width="10" id="g" d="M84 237v13l14 20h581q15-8 15-20t-15-20H98q-14 7-14 20z"/><path stroke-width="10" id="h" d="M56 237v13l14 20h299v150l1 150q10 13 19 13 13 0 20-15V270h298q15-8 15-20t-15-20H409V-68q-8-14-18-14h-4q-12 0-18 14v298H70q-14 7-14 20z"/></defs><g stroke="currentColor" fill="currentColor" stroke-width="0" transform="scale(1 -1)"><use xlink:href="#a"/><use xlink:href="#b" x="823"/><use xlink:href="#c" x="1217"/><use xlink:href="#d" x="1583"/><use xlink:href="#e" x="2254"/><use xlink:href="#b" x="3315"/><use xlink:href="#f" x="3709"/><use xlink:href="#g" x="4436"/><use xlink:href="#c" x="5442"/><use xlink:href="#d" x="5808"/><use xlink:href="#a" x="6202"/><use xlink:href="#b" x="7025"/><use xlink:href="#c" x="7419"/><use xlink:href="#d" x="7785"/><use xlink:href="#h" x="8401"/><use xlink:href="#c" x="9406"/><use xlink:href="#a" x="9772"/><use xlink:href="#b" x="10595"/><use xlink:href="#c" x="10989"/><use xlink:href="#d" x="11355"/></g></svg>