<svg xmlns:xlink="http://www.w3.org/1999/xlink" width="67.328ex" height="3.176ex" style="vertical-align:-.838ex" viewBox="0 -1006.6 28988.2 1367.4" xmlns="http://www.w3.org/2000/svg"><defs><path stroke-width="10" id="a" d="M720 510q0-34-16-62t-39-44-46-27-39-15l-16-3 19-3q19-3 49-14t58-30q22-20 35-36 27-41 27-87v-6q0-23-11-58Q698 18 547 2q-4-1-259-2H39v62h108v562H39v62h370q93 0 133-5t82-26q96-48 96-145zm-157 3q0 40-15 65t-30 33-32 11q-7 2-101 2h-92V382h82q83 1 92 3 96 20 96 128zm27-321q0 115-85 137-1 1-2 1l-105 1H293V62h151q52 0 84 13t52 56q10 24 10 61z"/><path stroke-width="10" id="b" d="M94 250q0 69 10 131t23 107 37 88 38 67 42 52 33 34 25 21h17q14 0 14-9 0-3-17-21t-41-53-49-86-42-138-17-193 17-192 41-139 49-86 42-53 17-21q0-9-15-9h-16l-28 24q-94 85-137 212T94 250z"/><path stroke-width="10" id="c" d="M26 385q-7 7-7 10 0 4 3 16t5 14q2 5 9 5t51 1h53l19 80q3 11 7 29t7 26 6 20 8 17 10 12 14 9 18 2q18-1 25-11t7-19q0-7-9-47t-20-79l-10-37q0-2 50-2h51q7-7 7-11 0-22-13-35H210l-36-145Q135 80 135 68q0-42 27-42 35 0 68 34t53 84q2 6 5 7t15 2h4q15 0 15-8 0-3-3-12-5-16-18-38t-34-47-51-42-61-17q-30 0-57 15T59 56q-2 8-2 27v18l35 140q35 141 36 142 0 2-51 2H26z"/><path stroke-width="10" id="d" d="M60 749l4 1h22l28-24q94-85 137-212t43-264q0-68-10-131T261 12t-37-88-38-67-41-51-32-33-23-19l-4-4H63q-3 0-5 3t-3 9q1 1 11 13Q221-64 221 250T66 725q-10 12-11 13 0 8 5 11z"/><path stroke-width="10" id="e" d="M56 347q0 13 14 20h637q15-8 15-20 0-11-14-19l-318-1H72q-16 5-16 20zm0-194q0 15 16 20h636q14-10 14-20 0-13-15-20H70q-14 7-14 20z"/><path stroke-width="10" id="f" d="M400 0q-24 3-174 3Q75 3 51 0H39v62h108v562H39v62h214q182 0 217-1t66-7q49-10 85-30t54-43 30-48 13-43 3-31-3-32-14-42-31-47-57-40-86-29q-30-5-131-6h-95V62h108V0h-12zm153 475q0 79-16 107t-78 40q-8 1-86 2h-75V343h74q85 1 108 7 47 12 60 40t13 85z"/><path stroke-width="10" id="g" d="M96 585q56 81 153 81 48 0 96-26t78-92q37-83 37-228 0-155-43-237-20-42-55-67t-61-31-51-7q-26 0-52 6t-61 32-55 67q-43 82-43 237 0 174 57 265zm225 12q-30 32-71 32-42 0-72-32-25-26-33-72t-8-192q0-158 8-208t36-79q28-30 69-30 40 0 68 30 29 30 36 84t8 203q0 145-8 191t-33 73z"/><path stroke-width="10" id="h" d="M213 578l-13-5q-14-5-40-10t-58-7H83v46h19q47 2 87 15t56 24 28 22q2 3 12 3 9 0 17-6V361l1-300q7-7 12-9t24-4 62-2h26V0h-11q-21 3-159 3-136 0-157-3H88v46h64q16 0 25 1t16 3 8 2 6 5 6 4v517z"/><path stroke-width="10" id="i" d="M84 237v13l14 20h581q15-8 15-20t-15-20H98q-14 7-14 20z"/><path stroke-width="10" id="j" d="M127 463q-27 0-42 17t-16 44q0 55 48 98t116 43q35 0 44-1 74-12 113-53t40-89q0-52-34-101t-94-71l-3-2q0-1 9-3t29-9 38-21q82-53 82-140 0-79-62-138T238-22q-80 0-138 43T42 130q0 28 18 45t45 18q28 0 46-18t18-45q0-11-3-20t-7-16-11-12-12-8-10-4-8-3l-4-1q51-45 124-45 55 0 83 53 17 33 17 101v20q0 95-64 127-15 6-61 7l-42 1-3 2q-2 3-2 16 0 18 8 18 28 0 58 5 34 5 62 42t28 112v8q0 57-35 79-22 14-47 14-32 0-59-11t-38-23-11-12h3q3-1 8-2t10-5 12-7 10-11 8-15 3-20q0-22-14-39t-45-18z"/><path stroke-width="10" id="k" d="M56 237v13l14 20h299v150l1 150q10 13 19 13 13 0 20-15V270h298q15-8 15-20t-15-20H409V-68q-8-14-18-14h-4q-12 0-18 14v298H70q-14 7-14 20z"/><path stroke-width="10" id="l" d="M109 429q-27 0-43 18t-16 44q0 71 53 123t132 52q91 0 152-56t62-145q0-43-20-82t-48-68-80-74q-36-31-100-92l-59-56 76-1q157 0 167 5 7 2 24 89v3h40v-3q-1-3-13-91T421 3V0H50v31q0 7 6 15t30 35q29 32 50 56 9 10 34 37t34 37 29 33 28 34 23 30 21 32 15 29 13 32 7 30 3 33q0 63-34 109t-97 46q-33 0-58-17t-35-33-10-19q0-1 5-1 18 0 37-14t19-46q0-25-16-42t-45-18z"/><path stroke-width="10" id="m" d="M78 35v25l16 43 43 18q28 0 50-25t23-88q0-35-9-68t-21-57-26-41-24-27-13-9q-4 0-13 9t-9 13q0 4 11 16t25 30 26 50 16 73V9l-1-1q-2-1-5-2t-6-3-9-2-12-1q-27 0-44 17z"/><path stroke-width="10" id="n" d="M84 250q0 122 82 200t194 89h17q16 0 42 1t50 0h99q15-8 15-20 0-9-13-19l-104-1q-111-1-137-6-49-12-87-36t-59-49-36-55-18-48-5-34v-2h444q15-8 15-20t-15-20H124v-2q0-21 10-51t33-65 64-64 97-41q27-6 138-7h104q13-10 13-20 0-12-15-20H446q-18 0-29-1-155 0-245 86-88 82-88 205z"/><path stroke-width="10" id="o" d="M118-250V750h137v-40h-97v-920h97v-40H118z"/><path stroke-width="10" id="p" d="M22 710v40h137V-250H22v40h97v920H22z"/></defs><g stroke="currentColor" fill="currentColor" stroke-width="0" transform="scale(1 -1)"><use xlink:href="#a"/><use xlink:href="#b" x="823"/><use xlink:href="#c" x="1217"/><use xlink:href="#d" x="1583"/><use xlink:href="#e" x="2254"/><g transform="translate(3315)"><use xlink:href="#f"/><use transform="scale(.707)" xlink:href="#g" x="1118" y="-213"/></g><use xlink:href="#b" x="4563"/><use xlink:href="#h" x="4957"/><use xlink:href="#i" x="5684"/><use xlink:href="#c" x="6690"/><g transform="translate(7056)"><use xlink:href="#d"/><use transform="scale(.707)" xlink:href="#j" x="557" y="583"/></g><use xlink:href="#k" x="8129"/><use xlink:href="#j" x="9134"/><g transform="translate(9639)"><use xlink:href="#f"/><use transform="scale(.707)" xlink:href="#h" x="1118" y="-213"/></g><use xlink:href="#c" x="10887"/><use xlink:href="#b" x="11253"/><use xlink:href="#h" x="11647"/><use xlink:href="#i" x="12374"/><use xlink:href="#c" x="13380"/><g transform="translate(13746)"><use xlink:href="#d"/><use transform="scale(.707)" xlink:href="#l" x="557" y="583"/></g><use xlink:href="#k" x="14819"/><use xlink:href="#j" x="15824"/><g transform="translate(16329)"><use xlink:href="#f"/><use transform="scale(.707)" xlink:href="#l" x="1118" y="-213"/></g><g transform="translate(17577)"><use xlink:href="#c"/><use transform="scale(.707)" xlink:href="#l" x="517" y="583"/></g><use xlink:href="#b" x="18400"/><use xlink:href="#h" x="18794"/><use xlink:href="#i" x="19522"/><use xlink:href="#c" x="20527"/><use xlink:href="#d" x="20893"/><use xlink:href="#k" x="21509"/><g transform="translate(22514)"><use xlink:href="#f"/><use transform="scale(.707)" xlink:href="#j" x="1118" y="-213"/></g><g transform="translate(23762)"><use xlink:href="#c"/><use transform="scale(.707)" xlink:href="#j" x="517" y="583"/></g><use xlink:href="#m" x="24585"/><use xlink:href="#c" x="25368"/><use xlink:href="#n" x="26012"/><use xlink:href="#o" x="26962"/><use xlink:href="#g" x="27245"/><use xlink:href="#m" x="27750"/><use xlink:href="#h" x="28200"/><use xlink:href="#p" x="28705"/></g></svg>