<?xml version="1.0" encoding="UTF-8" standalone="no"?><svg xmlns="http://www.w3.org/2000/svg" xmlns:xlink="http://www.w3.org/1999/xlink" contentStyleType="text/css" height="860px" preserveAspectRatio="none" style="width:1209px;height:860px;background:#FFFFFF;" version="1.1" viewBox="0 0 1209 860" width="1209px" zoomAndPan="magnify"><defs/><g><rect fill="none" height="20.9531" style="stroke:none;stroke-width:1.0;" width="1176.75" x="15" y="12.7451"/><path d="M178,38.6982 L178,78.9639 L390,78.9639 L390,48.6982 L380,38.6982 L178,38.6982 " fill="#FEFFDD" style="stroke:#181818;stroke-width:0.5;"/><path d="M380,38.6982 L380,48.6982 L390,48.6982 L380,38.6982 " fill="#FEFFDD" style="stroke:#181818;stroke-width:0.5;"/><text fill="#000000" font-family="sans-serif" font-size="13" lengthAdjust="spacing" textLength="191" x="184" y="55.7651">when it's the sequencer's turn</text><text fill="#000000" font-family="sans-serif" font-size="13" lengthAdjust="spacing" textLength="116" x="184" y="70.8979">to provide a batch</text><ellipse cx="148" cy="58.8311" fill="#222222" rx="10" ry="10" style="stroke:#222222;stroke-width:1.0;"/><rect fill="#F1F1F1" height="33.9688" rx="12.5" ry="12.5" style="stroke:#181818;stroke-width:0.5;" width="136" x="80" y="98.9639"/><text fill="#000000" font-family="sans-serif" font-size="12" lengthAdjust="spacing" textLength="116" x="90" y="120.1025">Pick txns for batch</text><rect fill="#F1F1F1" height="33.9688" rx="12.5" ry="12.5" style="stroke:#181818;stroke-width:0.5;" width="68" x="114" y="208.6431"/><text fill="#000000" font-family="sans-serif" font-size="12" lengthAdjust="spacing" textLength="48" x="124" y="229.7817">pick txn</text><polygon fill="#F1F1F1" points="80,152.9326,216,152.9326,228,164.9326,216,176.9326,80,176.9326,68,164.9326,80,152.9326" style="stroke:#181818;stroke-width:0.5;"/><text fill="#000000" font-family="sans-serif" font-size="11" lengthAdjust="spacing" textLength="14" x="152" y="187.1431">no</text><text fill="#000000" font-family="sans-serif" font-size="11" lengthAdjust="spacing" textLength="136" x="80" y="168.7407">finished w/ picked txns?</text><text fill="#000000" font-family="sans-serif" font-size="11" lengthAdjust="spacing" textLength="20" x="48" y="162.3384">yes</text><rect fill="#F1F1F1" height="33.9688" rx="12.5" ry="12.5" style="stroke:#181818;stroke-width:0.5;" width="109" x="93.5" y="774.4556"/><text fill="#000000" font-family="sans-serif" font-size="12" lengthAdjust="spacing" textLength="89" x="103.5" y="795.5942">Produce Proof</text><ellipse cx="148" cy="838.4243" fill="none" rx="10" ry="10" style="stroke:#222222;stroke-width:1.5;"/><line style="stroke:#222222;stroke-width:2.5;" x1="141.8128" x2="154.1872" y1="832.2371" y2="844.6115"/><line style="stroke:#222222;stroke-width:2.5;" x1="154.1872" x2="141.8128" y1="832.2371" y2="844.6115"/><line style="stroke:#000000;stroke-width:1.5;" x1="15" x2="15" y1="12.7451" y2="848.4243"/><rect fill="#F1F1F1" height="33.9688" rx="12.5" ry="12.5" style="stroke:#181818;stroke-width:0.5;" width="114" x="562.625" y="262.6118"/><text fill="#000000" font-family="sans-serif" font-size="12" lengthAdjust="spacing" textLength="94" x="572.625" y="283.7505">Validate nonce</text><polygon fill="#F1F1F1" points="572.625,316.5806,666.625,316.5806,678.625,328.5806,666.625,340.5806,572.625,340.5806,560.625,328.5806,572.625,316.5806" style="stroke:#181818;stroke-width:0.5;"/><text fill="#000000" font-family="sans-serif" font-size="11" lengthAdjust="spacing" textLength="94" x="572.625" y="332.3887">nonce is invalid?</text><text fill="#000000" font-family="sans-serif" font-size="11" lengthAdjust="spacing" textLength="20" x="540.625" y="325.9863">yes</text><text fill="#000000" font-family="sans-serif" font-size="11" lengthAdjust="spacing" textLength="14" x="678.625" y="325.9863">no</text><rect fill="#F1F1F1" height="33.9688" rx="12.5" ry="12.5" style="stroke:#181818;stroke-width:0.5;" width="82" x="401" y="360.5806"/><text fill="#000000" font-family="sans-serif" font-size="12" lengthAdjust="spacing" textLength="62" x="411" y="381.7192">Reject txn</text><polygon fill="#F1F1F1" points="793.75,414.5493,860.75,414.5493,872.75,426.5493,860.75,438.5493,793.75,438.5493,781.75,426.5493,793.75,414.5493" style="stroke:#181818;stroke-width:0.5;"/><text fill="#000000" font-family="sans-serif" font-size="11" lengthAdjust="spacing" textLength="67" x="793.75" y="430.3574">txn is valid?</text><text fill="#000000" font-family="sans-serif" font-size="11" lengthAdjust="spacing" textLength="20" x="761.75" y="423.9551">yes</text><text fill="#000000" font-family="sans-serif" font-size="11" lengthAdjust="spacing" textLength="14" x="872.75" y="423.9551">no</text><rect fill="#F1F1F1" height="33.9688" rx="12.5" ry="12.5" style="stroke:#181818;stroke-width:0.5;" width="86" x="655.5" y="458.5493"/><text fill="#000000" font-family="sans-serif" font-size="12" lengthAdjust="spacing" textLength="66" x="665.5" y="479.688">Pay for txn</text><polygon fill="#F1F1F1" points="636,566.4868,761,566.4868,773,578.4868,761,590.4868,636,590.4868,624,578.4868,636,566.4868" style="stroke:#181818;stroke-width:0.5;"/><text fill="#000000" font-family="sans-serif" font-size="11" lengthAdjust="spacing" textLength="125" x="636" y="582.2949">execution successful?</text><text fill="#000000" font-family="sans-serif" font-size="11" lengthAdjust="spacing" textLength="20" x="604" y="575.8926">yes</text><text fill="#000000" font-family="sans-serif" font-size="11" lengthAdjust="spacing" textLength="14" x="773" y="575.8926">no</text><rect fill="#F1F1F1" height="33.9688" rx="12.5" ry="12.5" style="stroke:#181818;stroke-width:0.5;" width="205" x="493" y="600.4868"/><text fill="#000000" font-family="sans-serif" font-size="12" lengthAdjust="spacing" textLength="185" x="503" y="621.6255">Add txn and outputs to batch</text><rect fill="#F1F1F1" height="33.9688" rx="12.5" ry="12.5" style="stroke:#181818;stroke-width:0.5;" width="167" x="718" y="600.4868"/><text fill="#000000" font-family="sans-serif" font-size="12" lengthAdjust="spacing" textLength="147" x="728" y="621.6255">Add txn failure to batch</text><polygon fill="#F1F1F1" points="698.5,640.4556,710.5,652.4556,698.5,664.4556,686.5,652.4556,698.5,640.4556" style="stroke:#181818;stroke-width:0.5;"/><rect fill="#F1F1F1" height="33.9688" rx="12.5" ry="12.5" style="stroke:#181818;stroke-width:0.5;" width="82" x="896.75" y="458.5493"/><text fill="#000000" font-family="sans-serif" font-size="12" lengthAdjust="spacing" textLength="62" x="906.75" y="479.688">Reject txn</text><polygon fill="#F1F1F1" points="827.25,674.4556,839.25,686.4556,827.25,698.4556,815.25,686.4556,827.25,674.4556" style="stroke:#181818;stroke-width:0.5;"/><polygon fill="#F1F1F1" points="619.625,708.4556,631.625,720.4556,619.625,732.4556,607.625,720.4556,619.625,708.4556" style="stroke:#181818;stroke-width:0.5;"/><line style="stroke:#000000;stroke-width:1.5;" x1="395" x2="395" y1="12.7451" y2="848.4243"/><rect fill="#F1F1F1" height="33.9688" rx="12.5" ry="12.5" style="stroke:#181818;stroke-width:0.5;" width="94" x="1091.75" y="360.5806"/><text fill="#000000" font-family="sans-serif" font-size="12" lengthAdjust="spacing" textLength="74" x="1101.75" y="381.7192">Validate txn</text><rect fill="#F1F1F1" height="33.9688" rx="12.5" ry="12.5" style="stroke:#181818;stroke-width:0.5;" width="93" x="988.75" y="512.5181"/><text fill="#000000" font-family="sans-serif" font-size="12" lengthAdjust="spacing" textLength="73" x="998.75" y="533.6567">Execute txn</text><line style="stroke:#000000;stroke-width:1.5;" x1="982.75" x2="982.75" y1="12.7451" y2="848.4243"/><line style="stroke:#000000;stroke-width:1.5;" x1="1189.75" x2="1189.75" y1="12.7451" y2="848.4243"/><polygon fill="#181818" points="1006.75,448.647,1010.75,438.647,1014.75,448.647,1010.75,444.647" style="stroke:#181818;stroke-width:1.0;"/><line style="stroke:#181818;stroke-width:1.0;" x1="148" x2="148" y1="68.8311" y2="98.9639"/><polygon fill="#181818" points="144,88.9639,148,98.9639,152,88.9639,148,92.9639" style="stroke:#181818;stroke-width:1.0;"/><line style="stroke:#181818;stroke-width:1.0;" x1="148" x2="148" y1="176.9326" y2="208.6431"/><polygon fill="#181818" points="144,198.6431,148,208.6431,152,198.6431,148,202.6431" style="stroke:#181818;stroke-width:1.0;"/><line style="stroke:#181818;stroke-width:1.0;" x1="68" x2="34" y1="164.9326" y2="164.9326"/><polygon fill="#181818" points="30,440.647,34,450.647,38,440.647,34,444.647" style="stroke:#181818;stroke-width:1.0;"/><line style="stroke:#181818;stroke-width:1.0;" x1="34" x2="34" y1="164.9326" y2="754.4556"/><line style="stroke:#181818;stroke-width:1.0;" x1="34" x2="148" y1="754.4556" y2="754.4556"/><line style="stroke:#181818;stroke-width:1.0;" x1="148" x2="148" y1="754.4556" y2="774.4556"/><polygon fill="#181818" points="144,764.4556,148,774.4556,152,764.4556,148,768.4556" style="stroke:#181818;stroke-width:1.0;"/><line style="stroke:#181818;stroke-width:1.0;" x1="148" x2="148" y1="132.9326" y2="152.9326"/><polygon fill="#181818" points="144,142.9326,148,152.9326,152,142.9326,148,146.9326" style="stroke:#181818;stroke-width:1.0;"/><line style="stroke:#181818;stroke-width:1.0;" x1="148" x2="148" y1="808.4243" y2="828.4243"/><polygon fill="#181818" points="144,818.4243,148,828.4243,152,818.4243,148,822.4243" style="stroke:#181818;stroke-width:1.0;"/><line style="stroke:#181818;stroke-width:1.0;" x1="624" x2="595.5" y1="578.4868" y2="578.4868"/><line style="stroke:#181818;stroke-width:1.0;" x1="595.5" x2="595.5" y1="578.4868" y2="600.4868"/><polygon fill="#181818" points="591.5,590.4868,595.5,600.4868,599.5,590.4868,595.5,594.4868" style="stroke:#181818;stroke-width:1.0;"/><line style="stroke:#181818;stroke-width:1.0;" x1="773" x2="801.5" y1="578.4868" y2="578.4868"/><line style="stroke:#181818;stroke-width:1.0;" x1="801.5" x2="801.5" y1="578.4868" y2="600.4868"/><polygon fill="#181818" points="797.5,590.4868,801.5,600.4868,805.5,590.4868,801.5,594.4868" style="stroke:#181818;stroke-width:1.0;"/><line style="stroke:#181818;stroke-width:1.0;" x1="595.5" x2="595.5" y1="634.4556" y2="652.4556"/><line style="stroke:#181818;stroke-width:1.0;" x1="595.5" x2="686.5" y1="652.4556" y2="652.4556"/><polygon fill="#181818" points="676.5,648.4556,686.5,652.4556,676.5,656.4556,680.5,652.4556" style="stroke:#181818;stroke-width:1.0;"/><line style="stroke:#181818;stroke-width:1.0;" x1="801.5" x2="801.5" y1="634.4556" y2="652.4556"/><line style="stroke:#181818;stroke-width:1.0;" x1="801.5" x2="710.5" y1="652.4556" y2="652.4556"/><polygon fill="#181818" points="720.5,648.4556,710.5,652.4556,720.5,656.4556,716.5,652.4556" style="stroke:#181818;stroke-width:1.0;"/><line style="stroke:#181818;stroke-width:1.0;" x1="781.75" x2="698.5" y1="426.5493" y2="426.5493"/><line style="stroke:#181818;stroke-width:1.0;" x1="698.5" x2="698.5" y1="426.5493" y2="458.5493"/><polygon fill="#181818" points="694.5,448.5493,698.5,458.5493,702.5,448.5493,698.5,452.5493" style="stroke:#181818;stroke-width:1.0;"/><line style="stroke:#181818;stroke-width:1.0;" x1="872.75" x2="937.75" y1="426.5493" y2="426.5493"/><line style="stroke:#181818;stroke-width:1.0;" x1="937.75" x2="937.75" y1="426.5493" y2="458.5493"/><polygon fill="#181818" points="933.75,448.5493,937.75,458.5493,941.75,448.5493,937.75,452.5493" style="stroke:#181818;stroke-width:1.0;"/><line style="stroke:#181818;stroke-width:1.0;" x1="698.5" x2="698.5" y1="664.4556" y2="686.4556"/><line style="stroke:#181818;stroke-width:1.0;" x1="698.5" x2="815.25" y1="686.4556" y2="686.4556"/><polygon fill="#181818" points="805.25,682.4556,815.25,686.4556,805.25,690.4556,809.25,686.4556" style="stroke:#181818;stroke-width:1.0;"/><line style="stroke:#181818;stroke-width:1.0;" x1="937.75" x2="937.75" y1="492.5181" y2="686.4556"/><line style="stroke:#181818;stroke-width:1.0;" x1="937.75" x2="839.25" y1="686.4556" y2="686.4556"/><polygon fill="#181818" points="849.25,682.4556,839.25,686.4556,849.25,690.4556,845.25,686.4556" style="stroke:#181818;stroke-width:1.0;"/><line style="stroke:#181818;stroke-width:1.0;" x1="560.625" x2="442" y1="328.5806" y2="328.5806"/><line style="stroke:#181818;stroke-width:1.0;" x1="442" x2="442" y1="328.5806" y2="360.5806"/><polygon fill="#181818" points="438,350.5806,442,360.5806,446,350.5806,442,354.5806" style="stroke:#181818;stroke-width:1.0;"/><line style="stroke:#181818;stroke-width:1.0;" x1="442" x2="442" y1="394.5493" y2="720.4556"/><line style="stroke:#181818;stroke-width:1.0;" x1="442" x2="607.625" y1="720.4556" y2="720.4556"/><polygon fill="#181818" points="597.625,716.4556,607.625,720.4556,597.625,724.4556,601.625,720.4556" style="stroke:#181818;stroke-width:1.0;"/><line style="stroke:#181818;stroke-width:1.0;" x1="827.25" x2="827.25" y1="698.4556" y2="720.4556"/><line style="stroke:#181818;stroke-width:1.0;" x1="827.25" x2="631.625" y1="720.4556" y2="720.4556"/><polygon fill="#181818" points="641.625,716.4556,631.625,720.4556,641.625,724.4556,637.625,720.4556" style="stroke:#181818;stroke-width:1.0;"/><line style="stroke:#181818;stroke-width:1.0;" x1="619.625" x2="619.625" y1="296.5806" y2="316.5806"/><polygon fill="#181818" points="615.625,306.5806,619.625,316.5806,623.625,306.5806,619.625,310.5806" style="stroke:#181818;stroke-width:1.0;"/><line style="stroke:#181818;stroke-width:1.0;" x1="148" x2="148" y1="242.6118" y2="247.6118"/><line style="stroke:#181818;stroke-width:1.0;" x1="148" x2="619.625" y1="247.6118" y2="247.6118"/><line style="stroke:#181818;stroke-width:1.0;" x1="619.625" x2="619.625" y1="247.6118" y2="262.6118"/><polygon fill="#181818" points="615.625,252.6118,619.625,262.6118,623.625,252.6118,619.625,256.6118" style="stroke:#181818;stroke-width:1.0;"/><line style="stroke:#181818;stroke-width:1.0;" x1="698.5" x2="698.5" y1="492.5181" y2="497.5181"/><line style="stroke:#181818;stroke-width:1.0;" x1="698.5" x2="1035.25" y1="497.5181" y2="497.5181"/><line style="stroke:#181818;stroke-width:1.0;" x1="1035.25" x2="1035.25" y1="497.5181" y2="512.5181"/><polygon fill="#181818" points="1031.25,502.5181,1035.25,512.5181,1039.25,502.5181,1035.25,506.5181" style="stroke:#181818;stroke-width:1.0;"/><line style="stroke:#181818;stroke-width:1.0;" x1="1035.25" x2="1035.25" y1="546.4868" y2="551.4868"/><line style="stroke:#181818;stroke-width:1.0;" x1="1035.25" x2="698.5" y1="551.4868" y2="551.4868"/><line style="stroke:#181818;stroke-width:1.0;" x1="698.5" x2="698.5" y1="551.4868" y2="566.4868"/><polygon fill="#181818" points="694.5,556.4868,698.5,566.4868,702.5,556.4868,698.5,560.4868" style="stroke:#181818;stroke-width:1.0;"/><line style="stroke:#181818;stroke-width:1.0;" x1="1138.75" x2="1138.75" y1="394.5493" y2="399.5493"/><line style="stroke:#181818;stroke-width:1.0;" x1="1138.75" x2="827.25" y1="399.5493" y2="399.5493"/><line style="stroke:#181818;stroke-width:1.0;" x1="827.25" x2="827.25" y1="399.5493" y2="414.5493"/><polygon fill="#181818" points="823.25,404.5493,827.25,414.5493,831.25,404.5493,827.25,408.5493" style="stroke:#181818;stroke-width:1.0;"/><line style="stroke:#181818;stroke-width:1.0;" x1="678.625" x2="1138.75" y1="328.5806" y2="328.5806"/><line style="stroke:#181818;stroke-width:1.0;" x1="1138.75" x2="1138.75" y1="328.5806" y2="360.5806"/><polygon fill="#181818" points="1134.75,350.5806,1138.75,360.5806,1142.75,350.5806,1138.75,354.5806" style="stroke:#181818;stroke-width:1.0;"/><line style="stroke:#181818;stroke-width:1.0;" x1="619.625" x2="619.625" y1="732.4556" y2="742.4556"/><line style="stroke:#181818;stroke-width:1.0;" x1="619.625" x2="1010.75" y1="742.4556" y2="742.4556"/><line style="stroke:#181818;stroke-width:1.0;" x1="1010.75" x2="1010.75" y1="164.9326" y2="742.4556"/><line style="stroke:#181818;stroke-width:1.0;" x1="1010.75" x2="228" y1="164.9326" y2="164.9326"/><polygon fill="#181818" points="238,160.9326,228,164.9326,238,168.9326,234,164.9326" style="stroke:#181818;stroke-width:1.0;"/><text fill="#000000" font-family="sans-serif" font-size="18" lengthAdjust="spacing" textLength="94" x="158" y="29.4531">Sequencer</text><text fill="#000000" font-family="sans-serif" font-size="18" lengthAdjust="spacing" textLength="25" x="676.375" y="29.4531">OS</text><text fill="#000000" font-family="sans-serif" font-size="18" lengthAdjust="spacing" textLength="152" x="1010.25" y="29.4531">Account Contract</text><!--SRC=[TP9FJyCm3CNl-HI-iPsuRmSq8SvCJE8U4cSrL4v9dFsH-k5nscvii5sQEdc_zzou_GQ_2xB3r9iiDea9RRH2l0MEWf1esuW1s3V8GFAGGHg4V89gNHAhG29qAUx88rZuiE8QW-m74xDOa_i2EN264DDukZJ6x1jg4MQ1c7A37lQFqAbItwhsQGwKOSPnhlQBRh9OQj6_RlgwzsvRybQxvAZDr1CA5T2YeiIxAb0VgTtFZfYhbO9l-8bEJdROPZpbgFdAkLXOu3co9Eka7vbps4ITsnXJTRTctabKVcsFmzUVyRjHAduve2kNMHTfOnuE2eeCkJY7EOVItifLivKVBXIipYCMwOhaEgvf3AFe-Wwki62fBGd_8-mfc5lmd_lzbOwhFgV93tsQ_k8VNAnJz4NdfsiCowhz0G00]--></g></svg>