<?xml version="1.0" encoding="UTF-8" standalone="no"?><svg xmlns="http://www.w3.org/2000/svg" xmlns:xlink="http://www.w3.org/1999/xlink" contentStyleType="text/css" height="602px" preserveAspectRatio="none" style="width:776px;height:602px;background:#FFFFFF;" version="1.1" viewBox="0 0 776 602" width="776px" zoomAndPan="magnify"><defs/><g><rect fill="none" height="20.9531" style="stroke:none;stroke-width:1.0;" width="743.5" x="15" y="12.7451"/><ellipse cx="103.5" cy="48.6982" fill="#222222" rx="10" ry="10" style="stroke:#222222;stroke-width:1.0;"/><rect fill="#F1F1F1" height="33.9688" rx="12.5" ry="12.5" style="stroke:#181818;stroke-width:0.5;" width="165" x="21" y="78.6982"/><text fill="#000000" font-family="sans-serif" font-size="12" lengthAdjust="spacing" textLength="145" x="31" y="99.8369">Construct and Sign Txn</text><line style="stroke:#000000;stroke-width:1.5;" x1="15" x2="15" y1="12.7451" y2="590.6475"/><rect fill="#F1F1F1" height="33.9688" rx="12.5" ry="12.5" style="stroke:#181818;stroke-width:0.5;" width="93" x="213.5" y="132.667"/><text fill="#000000" font-family="sans-serif" font-size="12" lengthAdjust="spacing" textLength="73" x="223.5" y="153.8057">Receive Txn</text><rect fill="#F1F1F1" height="33.9688" rx="12.5" ry="12.5" style="stroke:#181818;stroke-width:0.5;" width="116" x="202" y="514.6787"/><text fill="#000000" font-family="sans-serif" font-size="12" lengthAdjust="spacing" textLength="96" x="212" y="535.8174">Put in Mempool</text><ellipse cx="260" cy="579.6475" fill="none" rx="11" ry="11" style="stroke:#222222;stroke-width:1.0;"/><ellipse cx="260" cy="579.6475" fill="#222222" rx="6" ry="6" style="stroke:#111111;stroke-width:1.0;"/><line style="stroke:#000000;stroke-width:1.5;" x1="190" x2="190" y1="12.7451" y2="590.6475"/><rect fill="#F1F1F1" height="33.9688" rx="12.5" ry="12.5" style="stroke:#181818;stroke-width:0.5;" width="114" x="387" y="186.6357"/><text fill="#000000" font-family="sans-serif" font-size="12" lengthAdjust="spacing" textLength="94" x="397" y="207.7744">Validate nonce</text><polygon fill="#F1F1F1" points="397,240.6045,491,240.6045,503,252.6045,491,264.6045,397,264.6045,385,252.6045,397,240.6045" style="stroke:#181818;stroke-width:0.5;"/><text fill="#000000" font-family="sans-serif" font-size="11" lengthAdjust="spacing" textLength="94" x="397" y="256.4126">nonce is invalid?</text><text fill="#000000" font-family="sans-serif" font-size="11" lengthAdjust="spacing" textLength="20" x="365" y="250.0103">yes</text><text fill="#000000" font-family="sans-serif" font-size="11" lengthAdjust="spacing" textLength="14" x="503" y="250.0103">no</text><rect fill="#F1F1F1" height="33.9688" rx="12.5" ry="12.5" style="stroke:#181818;stroke-width:0.5;" width="82" x="334" y="284.6045"/><text fill="#000000" font-family="sans-serif" font-size="12" lengthAdjust="spacing" textLength="62" x="344" y="305.7432">Reject txn</text><ellipse cx="375" cy="349.5732" fill="none" rx="11" ry="11" style="stroke:#222222;stroke-width:1.0;"/><ellipse cx="375" cy="349.5732" fill="#222222" rx="6" ry="6" style="stroke:#111111;stroke-width:1.0;"/><rect fill="#F1F1F1" height="33.9688" rx="12.5" ry="12.5" style="stroke:#181818;stroke-width:0.5;" width="84" x="471" y="386.9756"/><text fill="#000000" font-family="sans-serif" font-size="12" lengthAdjust="spacing" textLength="64" x="481" y="408.1143">Reject Txn</text><ellipse cx="513" cy="461.6787" fill="none" rx="11" ry="11" style="stroke:#222222;stroke-width:1.0;"/><ellipse cx="513" cy="461.6787" fill="#222222" rx="6" ry="6" style="stroke:#111111;stroke-width:1.0;"/><polygon fill="#F1F1F1" points="474.5,338.5732,551.5,338.5732,563.5,350.5732,551.5,362.5732,474.5,362.5732,462.5,350.5732,474.5,338.5732" style="stroke:#181818;stroke-width:0.5;"/><text fill="#000000" font-family="sans-serif" font-size="11" lengthAdjust="spacing" textLength="20" x="517" y="372.7837">yes</text><text fill="#000000" font-family="sans-serif" font-size="11" lengthAdjust="spacing" textLength="77" x="474.5" y="354.3813">txn is invalid?</text><text fill="#000000" font-family="sans-serif" font-size="11" lengthAdjust="spacing" textLength="14" x="563.5" y="347.979">no</text><line style="stroke:#000000;stroke-width:1.5;" x1="328" x2="328" y1="12.7451" y2="590.6475"/><rect fill="#F1F1F1" height="33.9688" rx="12.5" ry="12.5" style="stroke:#181818;stroke-width:0.5;" width="94" x="629.5" y="284.6045"/><text fill="#000000" font-family="sans-serif" font-size="12" lengthAdjust="spacing" textLength="74" x="639.5" y="305.7432">Validate txn</text><line style="stroke:#000000;stroke-width:1.5;" x1="594.5" x2="594.5" y1="12.7451" y2="590.6475"/><line style="stroke:#000000;stroke-width:1.5;" x1="756.5" x2="756.5" y1="12.7451" y2="590.6475"/><line style="stroke:#181818;stroke-width:1.0;" x1="103.5" x2="103.5" y1="58.6982" y2="78.6982"/><polygon fill="#181818" points="99.5,68.6982,103.5,78.6982,107.5,68.6982,103.5,72.6982" style="stroke:#181818;stroke-width:1.0;"/><line style="stroke:#181818;stroke-width:1.0;" x1="260" x2="260" y1="548.6475" y2="568.6475"/><polygon fill="#181818" points="256,558.6475,260,568.6475,264,558.6475,260,562.6475" style="stroke:#181818;stroke-width:1.0;"/><line style="stroke:#181818;stroke-width:1.0;" x1="375" x2="375" y1="318.5732" y2="338.5732"/><polygon fill="#181818" points="371,328.5732,375,338.5732,379,328.5732,375,332.5732" style="stroke:#181818;stroke-width:1.0;"/><line style="stroke:#181818;stroke-width:1.0;" x1="513" x2="513" y1="420.9443" y2="450.6787"/><polygon fill="#181818" points="509,440.6787,513,450.6787,517,440.6787,513,444.6787" style="stroke:#181818;stroke-width:1.0;"/><line style="stroke:#181818;stroke-width:1.0;" x1="513" x2="513" y1="362.5732" y2="386.9756"/><polygon fill="#181818" points="509,376.9756,513,386.9756,517,376.9756,513,380.9756" style="stroke:#181818;stroke-width:1.0;"/><line style="stroke:#181818;stroke-width:1.0;" x1="563.5" x2="575.5" y1="350.5732" y2="350.5732"/><polygon fill="#181818" points="571.5,430.9443,575.5,440.9443,579.5,430.9443,575.5,434.9443" style="stroke:#181818;stroke-width:1.0;"/><line style="stroke:#181818;stroke-width:1.0;" x1="575.5" x2="575.5" y1="350.5732" y2="499.6787"/><line style="stroke:#181818;stroke-width:1.0;" x1="575.5" x2="260" y1="499.6787" y2="499.6787"/><line style="stroke:#181818;stroke-width:1.0;" x1="260" x2="260" y1="499.6787" y2="514.6787"/><polygon fill="#181818" points="256,504.6787,260,514.6787,264,504.6787,260,508.6787" style="stroke:#181818;stroke-width:1.0;"/><line style="stroke:#181818;stroke-width:1.0;" x1="385" x2="375" y1="252.6045" y2="252.6045"/><line style="stroke:#181818;stroke-width:1.0;" x1="375" x2="375" y1="252.6045" y2="284.6045"/><polygon fill="#181818" points="371,274.6045,375,284.6045,379,274.6045,375,278.6045" style="stroke:#181818;stroke-width:1.0;"/><line style="stroke:#181818;stroke-width:1.0;" x1="444" x2="444" y1="220.6045" y2="240.6045"/><polygon fill="#181818" points="440,230.6045,444,240.6045,448,230.6045,444,234.6045" style="stroke:#181818;stroke-width:1.0;"/><line style="stroke:#181818;stroke-width:1.0;" x1="103.5" x2="103.5" y1="112.667" y2="117.667"/><line style="stroke:#181818;stroke-width:1.0;" x1="103.5" x2="260" y1="117.667" y2="117.667"/><line style="stroke:#181818;stroke-width:1.0;" x1="260" x2="260" y1="117.667" y2="132.667"/><polygon fill="#181818" points="256,122.667,260,132.667,264,122.667,260,126.667" style="stroke:#181818;stroke-width:1.0;"/><line style="stroke:#181818;stroke-width:1.0;" x1="260" x2="260" y1="166.6357" y2="171.6357"/><line style="stroke:#181818;stroke-width:1.0;" x1="260" x2="444" y1="171.6357" y2="171.6357"/><line style="stroke:#181818;stroke-width:1.0;" x1="444" x2="444" y1="171.6357" y2="186.6357"/><polygon fill="#181818" points="440,176.6357,444,186.6357,448,176.6357,444,180.6357" style="stroke:#181818;stroke-width:1.0;"/><line style="stroke:#181818;stroke-width:1.0;" x1="676.5" x2="676.5" y1="318.5732" y2="323.5732"/><line style="stroke:#181818;stroke-width:1.0;" x1="676.5" x2="513" y1="323.5732" y2="323.5732"/><line style="stroke:#181818;stroke-width:1.0;" x1="513" x2="513" y1="323.5732" y2="338.5732"/><polygon fill="#181818" points="509,328.5732,513,338.5732,517,328.5732,513,332.5732" style="stroke:#181818;stroke-width:1.0;"/><line style="stroke:#181818;stroke-width:1.0;" x1="503" x2="676.5" y1="252.6045" y2="252.6045"/><line style="stroke:#181818;stroke-width:1.0;" x1="676.5" x2="676.5" y1="252.6045" y2="284.6045"/><polygon fill="#181818" points="672.5,274.6045,676.5,284.6045,680.5,274.6045,676.5,278.6045" style="stroke:#181818;stroke-width:1.0;"/><text fill="#000000" font-family="sans-serif" font-size="18" lengthAdjust="spacing" textLength="111" x="47" y="29.4531">User / Client</text><text fill="#000000" font-family="sans-serif" font-size="18" lengthAdjust="spacing" textLength="128" x="195" y="29.4531">Starknet Node</text><text fill="#000000" font-family="sans-serif" font-size="18" lengthAdjust="spacing" textLength="25" x="448.75" y="29.4531">OS</text><text fill="#000000" font-family="sans-serif" font-size="18" lengthAdjust="spacing" textLength="152" x="599.5" y="29.4531">Account Contract</text><!--SRC=[VP2x3i8m34NtV8N7Tc9l1uGwyn05zYXr8L0SrBWLIFbut2T8I4o9htrzhXoE7cjOG5PP90xAiwvP9PaZptLZ63GLaDipmU59gGgvz6-431jNO5397WtQ5iVkDWyA83dfoXQQ4SYHmLGaMqBK5s0zM6gxWMKCV462w8K-bXanxl6AmkHkMITuTW_vOEMnymzJOMMCQuX1GdAj3OV1F5Dd-vXdm8lw5_x17oR_7E0xmb1IOKirlUhtBhk61GLhl3-SgrBLBte3]--></g></svg>